<?xml version="1.0" encoding="utf-8"?>
<!-- Generator: Adobe Illustrator 23.1.0, SVG Export Plug-In . SVG Version: 6.00 Build 0)  -->
<svg fill="#f4f4f9" version="1.1" id="Camada_1" xmlns="http://www.w3.org/2000/svg" xmlns:xlink="http://www.w3.org/1999/xlink" x="0px" y="0px"
	 viewBox="0 0 173.65 177.32" style="enable-background:new 0 0 173.65 177.32;" xml:space="preserve">

<path class="st0" d="M46.11,68.77c5.97,0.65,23.67,1.55,29.56,2.74c10.53,2.12,14.35,12.63,8.28,21.37
	c-6.76,9.73-21.89,7.92-32.04,7.56c-7.39-0.26-14.79-0.53-22.18-0.79c0,0-12.56,26.25-12.56,26.25l39.05,2.2
	c49.49,0,67.69-22.02,66.36-47.73c-1.32-25.62-26.09-29.92-26.09-29.92l-12.07-1.43l7.45-15.47h39.39l12.1-29.74
	c0,0-67.21,0-67.21,0L46.11,68.77z"/>
<polygon class="st0" points="151.32,3.8 168.33,3.8 138.86,34.13 "/>
<g>
	<path d="M10.35,141.38h12.11l-0.58,3.45h-8.24l-1.62,9.36h6.91l-0.58,3.49h-6.95L9.15,170.5H5.24L10.35,141.38z"/>
	<path d="M20.63,170.5l5.12-29.12h3.91l-5.12,29.12H20.63z"/>
	<path d="M37.68,170.5h-4.33l-0.62-29.12h3.87l0.04,22.84l8.03-22.84h3.87L37.68,170.5z"/>
	<path d="M46.33,170.5l5.12-29.12h12.27l-0.58,3.45h-8.4l-1.58,9.15h7.07l-0.58,3.49h-7.11l-1.66,9.57h8.49l-0.62,3.45H46.33z"/>
	<path d="M79.56,163.63h-6.24l-2.45,6.86H67l10.9-29.12h4.83l0.75,29.12h-3.87L79.56,163.63z M79.56,160.35l-0.08-14.06l-4.99,14.06
		H79.56z"/>
	<path d="M101.32,144.83h-5.08l-4.53,25.67H87.8l4.53-25.67h-5.12l0.62-3.45h14.06L101.32,144.83z"/>
	<path d="M118.66,151.65l0.75-3.95c0.37-2.33-0.54-3.25-2.58-3.25c-2,0-3.29,0.92-3.66,3.25l-0.37,2c-0.29,1.75,0.12,2.5,1.62,3.45
		l3.45,2.08c2.25,1.41,3.66,2.7,3.16,5.53l-0.75,3.99c-0.75,4.37-3.16,6.07-7.99,6.07h-0.08c-3.99,0-6.7-1.66-5.91-6.07l0.87-4.95
		h3.87l-0.79,4.29c-0.37,2.29,0.5,3.33,2.58,3.33c2.04,0,3.37-1.04,3.74-3.33l0.42-2.29c0.33-1.83-0.17-2.62-1.75-3.58l-3.37-2.08
		c-2.2-1.37-3.5-3.04-3.08-5.45l0.62-3.66c0.75-4.2,3.58-5.99,7.99-5.99h0.08c3.58,0,6.61,1.79,5.82,5.99l-0.79,4.62H118.66z"/>
	<path d="M123.45,170.5l5.12-29.12h3.91l-5.12,29.12H123.45z"/>
	<path d="M150.48,147.53l-2.95,16.81c-0.75,4.28-3.33,6.16-8.15,6.16h-7.2l5.12-29.12h7.2
		C148.49,141.38,151.27,143.25,150.48,147.53z M143.7,144.83h-3.12l-3.87,22.21h3.12c2.16,0,3.45-0.87,3.91-3.45l2.7-15.31
		C146.91,145.7,145.91,144.83,143.7,144.83z"/>
	<path d="M150.94,170.5l5.12-29.12h12.27l-0.58,3.45h-8.4l-1.58,9.15h7.07l-0.58,3.49h-7.11l-1.66,9.57h8.49l-0.62,3.45H150.94z"/>
</g>
</svg>
